# xmcd
#
# Track frame offsets: 
#        150
#        18173
#        36110
#        58890
#        77028
#        91235
#        114069
#        133117
#        159429
#        183936
#        193730
#
# Disc length: 2905 seconds
#
# Revision: 1
# Processed by: cddbd v1.5.2PL0 Copyright (c) Steve Scherf et al.
# Submitted via: ExactAudioCopy v1.0b6
#
DISCID=830b570b
DTITLE=Various Artist - Songs 4 Worship Gospel - God Is In The House 
DTITLE=(2003)
DYEAR=2003
DGENRE=Gospel Praise and Worship
TTITLE0=Colorado Mass Choir - Let Everything That Hath Breath
TTITLE1=Radical For Christ - We Lift Up Your Name
TTITLE2=Vickie Winans - What A Mighty God We Serve Chorale • What A Mi
TTITLE2=ghty God We Serve
TTITLE3=Israel and New Breed - There's A Liftin' Of The Hands
TTITLE4=Mary Mary - What A Friend
TTITLE5=Motor City Mass Choir - It Is Good
TTITLE6=Tribe of Benjamin - Mighty Is Our God
TTITLE7=Colorado Mass Choir - Have Your Way
TTITLE8=Marvin Sapp - Give Thanks
TTITLE9=Carlton Pearson - Oh The Glory Of Your Presence
TTITLE10=Kirk Whalum - I Worship You Almighty God • Nobody Like You [I
TTITLE10=nstrumental]
EXTD=Really MISC, disc collision
EXTT0=
EXTT1=
EXTT2=
EXTT3=
EXTT4=
EXTT5=
EXTT6=
EXTT7=
EXTT8=
EXTT9=
EXTT10=
PLAYORDER=
